<?xml version="1.0" encoding="UTF-8"?>
<svg width="85px" height="96px" viewBox="0 0 85 96" version="1.1" xmlns="http://www.w3.org/2000/svg" xmlns:xlink="http://www.w3.org/1999/xlink">
    <!-- Generator: Sketch 43.1 (39012) - http://www.bohemiancoding.com/sketch -->
    <title>Group</title>
    <desc>Created with Sketch.</desc>
    <defs></defs>
    <g id="Page-1" stroke="none" stroke-width="1" fill="none" fill-rule="evenodd">
        <g id="Group" fill-rule="nonzero" fill="#244356">
            <path d="M6.45804,73 L2.00784,73 C0.90335,73 0.00784,72.10449 0.00784,71 L0.00784,26 C0.00784,24.89551 0.90335,24 2.00784,24 L10.83206,24 C11.93655,24 12.83206,24.89551 12.83206,26 C12.83206,27.10449 11.93655,28 10.83206,28 L4.00784,28 L4.00784,69 L6.45804,69 C7.56253,69 8.45804,69.89551 8.45804,71 C8.45804,72.10449 7.56253,73 6.45804,73 Z" id="Shape"></path>
            <path d="M6,28 C4.89551,28 4,27.10449 4,26 L4,2 C4,0.89551 4.89551,0 6,0 C7.10449,0 8,0.89551 8,2 L8,26 C8,27.10449 7.10449,28 6,28 Z" id="Shape"></path>
            <path d="M78.9668,39 C77.86231,39 76.9668,38.10449 76.9668,37 C76.9668,18.81689 62.18555,4.02148 44.00785,4 C25.83012,4.02148 11.04887,18.81689 11.04887,37 C11.04887,38.10449 10.15336,39 9.04887,39 C7.94438,39 7.04887,38.10449 7.04887,37 C7.04887,16.62549 23.60258,0.04443 43.96684,0 L43.96684,0 L43.96684,0 L43.96684,0 L44.04887,0 C64.4131,0.04443 80.96681,16.62549 80.96681,37 C80.9668,38.10449 80.07129,39 78.9668,39 Z" id="Shape"></path>
            <path d="M53.00784,96 L35.00784,96 C34.65237,96 34.30276,95.90527 33.99612,95.72559 L4.99612,78.72559 C4.33792,78.33887 3.95608,77.61133 4.0137,76.85059 L7.0137,36.85059 C7.09573,35.74952 8.043,34.93116 9.15725,35.00538 C10.25881,35.08839 11.08498,36.04835 11.00198,37.14942 L8.09573,75.90528 L35.55081,92 L52.47073,92 L80.2832,75.9043 L77.01465,37.16797 C76.92188,36.06738 77.73926,35.1001 78.83985,35.00733 C79.94239,34.91114 80.90821,35.73243 81.00098,36.83204 L84.37598,76.83204 C84.44043,77.60352 84.05469,78.34278 83.38477,78.73145 L54.0098,95.73145 C53.70511,95.90723 53.35941,96 53.00784,96 Z" id="Shape"></path>
            <path d="M78.72559,35 L9.28226,35 C8.17777,35 7.28226,34.10449 7.28226,33 C7.28226,31.89551 8.17777,31 9.28226,31 L78.72559,31 C79.83008,31 80.72559,31.89551 80.72559,33 C80.72559,34.10449 79.83008,35 78.72559,35 Z" id="Shape"></path>
            <path d="M53,96 C51.89551,96 51,95.10449 51,94 L51,52 C51,51.13672 51.55859,50.37012 52.37891,50.10059 C52.49317,50.0625 63.292,46.50391 71.06934,43.57178 L70.76465,41 L16.8555,41 L16.65238,43.54883 C24.45511,46.48389 35.50098,50.0586 35.61915,50.09668 C36.44434,50.36328 37,51.13184 37,52 L37,94 C37,95.10449 36.10449,96 35,96 C33.89551,96 33,95.10449 33,94 L33,53.45117 C30,52.30566 20.16602,49.2041 13.81543,46.75 C12.99023,46.43115 12.47464,45.60791 12.54398,44.72559 L13.01273,38.84131 C13.09574,37.80176 13.96488,37 15.00785,37 L72.54005,37 C73.55275,37 74.40626,37.75732 74.52638,38.76318 L75.22853,44.64746 C75.33595,45.55469 74.81154,46.42041 73.959,46.75 C67.62207,49.19922 58,52.29395 55,53.44336 L55,94 C55,95.10449 54.10449,96 53,96 Z" id="Shape"></path>
            <path d="M29.00784,92.4834 C27.90335,92.4834 27.00784,91.58789 27.00784,90.4834 L27.00784,85 C27.00784,71.15137 19.3721,58.57031 7.08108,52.16504 C6.10159,51.65527 5.72073,50.44727 6.23147,49.46777 C6.74221,48.48779 7.9512,48.10839 8.92874,48.61816 C22.54788,55.71484 31.00784,69.65527 31.00784,85 L31.00784,90.4834 C31.00784,91.58789 30.11234,92.4834 29.00784,92.4834 Z" id="Shape"></path>
            <path d="M59.00781,92.52832 C57.90335,92.52832 57.00784,91.63281 57.00784,90.52832 L57.00784,85 C57.00784,69.86621 65.26172,56.53027 79.08691,49.32617 C80.06738,48.81347 81.27441,49.19726 81.78418,50.17578 C82.29492,51.15527 81.91406,52.36328 80.93457,52.87305 C68.45703,59.375 61.00781,71.38477 61.00781,85 L61.00781,90.52832 C61.00781,91.63281 60.1123,92.52832 59.00781,92.52832 Z" id="Shape"></path>
            <path d="M59.5918,23.5835 C59.02149,23.5835 58.45511,23.34082 58.0596,22.87012 L52.8096,16.62012 C52.09866,15.77393 52.20901,14.5127 53.05472,13.80225 C53.9014,13.09229 55.16214,13.20166 55.8721,14.04688 L61.12207,20.29688 C61.83301,21.14307 61.72266,22.4043 60.87695,23.11475 C60.50195,23.42969 60.0459,23.5835 59.5918,23.5835 Z" id="Shape"></path>
            <path d="M50,26 C48.89551,26 48,25.10449 48,24 L48,19 C48,17.89551 48.89551,17 50,17 C51.10449,17 52,17.89551 52,19 L52,24 C52,25.10449 51.10449,26 50,26 Z" id="Shape"></path>
        </g>
    </g>
</svg>